<?xml version="1.0" encoding="UTF-8"?>
<svg width="512" height="512" viewBox="0 0 512 512" xmlns="http://www.w3.org/2000/svg">
  <defs>
    <linearGradient id="mainGradient" x1="0%" y1="0%" x2="100%" y2="100%">
      <stop offset="0%" style="stop-color:#007AFF;stop-opacity:1" />
      <stop offset="100%" style="stop-color:#5856D6;stop-opacity:1" />
    </linearGradient>
    <linearGradient id="windowGradient" x1="0%" y1="0%" x2="100%" y2="100%">
      <stop offset="0%" style="stop-color:#FFFFFF;stop-opacity:0.9" />
      <stop offset="100%" style="stop-color:#F2F2F7;stop-opacity:0.8" />
    </linearGradient>
    <filter id="shadow" x="-50%" y="-50%" width="200%" height="200%">
      <feDropShadow dx="0" dy="8" stdDeviation="16" flood-opacity="0.2"/>
    </filter>
  </defs>

  <!-- Background Circle -->
  <circle cx="256" cy="256" r="240" fill="url(#mainGradient)" filter="url(#shadow)"/>

  <!-- Main Window Container -->
  <rect x="96" y="96" width="320" height="240" rx="24" ry="24" fill="url(#windowGradient)" stroke="#007AFF" stroke-width="4" opacity="0.9"/>

  <!-- Window Grid Lines (representing snapping zones) -->
  <!-- Vertical center line -->
  <line x1="256" y1="116" x2="256" y2="316" stroke="#007AFF" stroke-width="3" opacity="0.6" stroke-dasharray="8,4"/>
  <!-- Horizontal center line -->
  <line x1="116" y1="216" x2="396" y2="216" stroke="#007AFF" stroke-width="3" opacity="0.6" stroke-dasharray="8,4"/>

  <!-- Snap Windows (showing different snap positions) -->
  <!-- Top-left snap zone -->
  <rect x="116" y="116" width="120" height="80" rx="8" ry="8" fill="#007AFF" opacity="0.8"/>

  <!-- Top-right snap zone -->
  <rect x="256" y="116" width="120" height="80" rx="8" ry="8" fill="#5856D6" opacity="0.8"/>

  <!-- Bottom window (full width) -->
  <rect x="116" y="236" width="260" height="80" rx="8" ry="8" fill="#34C759" opacity="0.8"/>

  <!-- Snap Indicators (corner arrows) -->
  <!-- Top-left arrow -->
  <path d="M 140 140 L 160 140 L 160 150 L 150 150 L 150 160 L 140 160 Z" fill="#FFFFFF" opacity="0.9"/>

  <!-- Top-right arrow -->
  <path d="M 352 140 L 352 160 L 342 160 L 342 150 L 332 150 L 332 140 Z" fill="#FFFFFF" opacity="0.9"/>

  <!-- Bottom-center expand arrow -->
  <path d="M 246 276 L 256 266 L 266 276 L 256 286 Z" fill="#FFFFFF" opacity="0.9"/>

  <!-- Mac-style window controls -->
  <circle cx="130" cy="130" r="6" fill="#FF5F57"/>
  <circle cx="146" cy="130" r="6" fill="#FFBD2E"/>
  <circle cx="162" cy="130" r="6" fill="#28CA42"/>

  <!-- Brand Text -->
  <text x="256" y="420" font-family="SF Pro Display, -apple-system, system-ui, sans-serif" font-size="48" font-weight="600" text-anchor="middle" fill="#FFFFFF">Mac Snap</text>
  <text x="256" y="450" font-family="SF Pro Display, -apple-system, system-ui, sans-serif" font-size="18" font-weight="400" text-anchor="middle" fill="#FFFFFF" opacity="0.8">Window Management</text>
</svg>